<svg width="18" height="18" viewBox="0 0 18 18" fill="none" xmlns="http://www.w3.org/2000/svg">
<path d="M16.7627 0.178128C17.0689 0.0687532 17.4064 0.146878 17.6377 0.375003C17.8689 0.603128 17.9439 0.943753 17.8346 1.25L12.2721 16.7781C12.1158 17.2125 11.7064 17.5 11.2471 17.5C10.8033 17.5 10.4033 17.2313 10.2377 16.8219L8.23144 11.8844C8.09082 11.5406 8.15332 11.1469 8.39394 10.8656L11.3471 7.35313C11.5064 7.1625 11.4939 6.88438 11.3189 6.70938C11.1439 6.53438 10.8627 6.52188 10.6752 6.68125L7.16269 9.62813C6.87832 9.86563 6.4877 9.92813 6.14395 9.79063L1.19082 7.775C0.781445 7.60938 0.512695 7.20938 0.512695 6.76563C0.512695 6.30625 0.800195 5.89688 1.23457 5.74063L16.7627 0.178128Z" fill="white"/>
</svg>
