<svg width="93" height="98" viewBox="0 0 93 98" fill="none" xmlns="http://www.w3.org/2000/svg">
<path d="M63.936 77H50.496L20.064 31.016V77H6.624V9.89599H20.064L50.496 55.976V9.89599H63.936V77Z" fill="#55B663"/>
<path d="M18.264 84.132C19.188 84.132 19.9347 84.426 20.504 85.014C21.0733 85.5927 21.358 86.4047 21.358 87.45V92H19.398V87.716C19.398 87.1 19.244 86.6287 18.936 86.302C18.628 85.966 18.208 85.798 17.676 85.798C17.1347 85.798 16.7053 85.966 16.388 86.302C16.08 86.6287 15.926 87.1 15.926 87.716V92H13.966V84.244H15.926V85.21C16.1873 84.874 16.5187 84.6127 16.92 84.426C17.3307 84.23 17.7787 84.132 18.264 84.132ZM26.2599 84.118C26.8385 84.118 27.3472 84.2347 27.7859 84.468C28.2245 84.692 28.5699 84.986 28.8219 85.35V84.244H30.7959V92.056C30.7959 92.7747 30.6512 93.414 30.3619 93.974C30.0725 94.5433 29.6385 94.9913 29.0599 95.318C28.4812 95.654 27.7812 95.822 26.9599 95.822C25.8585 95.822 24.9532 95.5653 24.2439 95.052C23.5439 94.5387 23.1472 93.8387 23.0539 92.952H24.9999C25.1025 93.3067 25.3219 93.5867 25.6579 93.792C26.0032 94.0067 26.4185 94.114 26.9039 94.114C27.4732 94.114 27.9352 93.9413 28.2899 93.596C28.6445 93.26 28.8219 92.7467 28.8219 92.056V90.852C28.5699 91.216 28.2199 91.5193 27.7719 91.762C27.3332 92.0047 26.8292 92.126 26.2599 92.126C25.6065 92.126 25.0092 91.958 24.4679 91.622C23.9265 91.286 23.4972 90.8147 23.1799 90.208C22.8719 89.592 22.7179 88.8873 22.7179 88.094C22.7179 87.31 22.8719 86.6147 23.1799 86.008C23.4972 85.4013 23.9219 84.9347 24.4539 84.608C24.9952 84.2813 25.5972 84.118 26.2599 84.118ZM28.8219 88.122C28.8219 87.646 28.7285 87.24 28.5419 86.904C28.3552 86.5587 28.1032 86.2973 27.7859 86.12C27.4685 85.9333 27.1279 85.84 26.7639 85.84C26.3999 85.84 26.0639 85.9287 25.7559 86.106C25.4479 86.2833 25.1959 86.5447 24.9999 86.89C24.8132 87.226 24.7199 87.6273 24.7199 88.094C24.7199 88.5607 24.8132 88.9713 24.9999 89.326C25.1959 89.6713 25.4479 89.9373 25.7559 90.124C26.0732 90.3107 26.4092 90.404 26.7639 90.404C27.1279 90.404 27.4685 90.3153 27.7859 90.138C28.1032 89.9513 28.3552 89.69 28.5419 89.354C28.7285 89.0087 28.8219 88.598 28.8219 88.122ZM36.1541 92.126C35.4075 92.126 34.7355 91.9627 34.1381 91.636C33.5408 91.3 33.0695 90.8287 32.7241 90.222C32.3881 89.6153 32.2201 88.9153 32.2201 88.122C32.2201 87.3287 32.3928 86.6287 32.7381 86.022C33.0928 85.4153 33.5735 84.9487 34.1801 84.622C34.7868 84.286 35.4635 84.118 36.2101 84.118C36.9568 84.118 37.6335 84.286 38.2401 84.622C38.8468 84.9487 39.3228 85.4153 39.6681 86.022C40.0228 86.6287 40.2001 87.3287 40.2001 88.122C40.2001 88.9153 40.0181 89.6153 39.6541 90.222C39.2995 90.8287 38.8141 91.3 38.1981 91.636C37.5915 91.9627 36.9101 92.126 36.1541 92.126ZM36.1541 90.418C36.5088 90.418 36.8401 90.334 37.1481 90.166C37.4655 89.9887 37.7175 89.7273 37.9041 89.382C38.0908 89.0367 38.1841 88.6167 38.1841 88.122C38.1841 87.3847 37.9881 86.82 37.5961 86.428C37.2135 86.0267 36.7421 85.826 36.1821 85.826C35.6221 85.826 35.1508 86.0267 34.7681 86.428C34.3948 86.82 34.2081 87.3847 34.2081 88.122C34.2081 88.8593 34.3901 89.4287 34.7541 89.83C35.1275 90.222 35.5941 90.418 36.1541 90.418ZM41.1339 88.094C41.1339 87.31 41.2879 86.6147 41.5959 86.008C41.9132 85.4013 42.3425 84.9347 42.8839 84.608C43.4252 84.2813 44.0272 84.118 44.6899 84.118C45.1939 84.118 45.6745 84.23 46.1319 84.454C46.5892 84.6687 46.9532 84.958 47.2239 85.322V81.64H49.2119V92H47.2239V90.852C46.9812 91.2347 46.6405 91.5427 46.2019 91.776C45.7632 92.0093 45.2545 92.126 44.6759 92.126C44.0225 92.126 43.4252 91.958 42.8839 91.622C42.3425 91.286 41.9132 90.8147 41.5959 90.208C41.2879 89.592 41.1339 88.8873 41.1339 88.094ZM47.2379 88.122C47.2379 87.646 47.1445 87.24 46.9579 86.904C46.7712 86.5587 46.5192 86.2973 46.2019 86.12C45.8845 85.9333 45.5439 85.84 45.1799 85.84C44.8159 85.84 44.4799 85.9287 44.1719 86.106C43.8639 86.2833 43.6119 86.5447 43.4159 86.89C43.2292 87.226 43.1359 87.6273 43.1359 88.094C43.1359 88.5607 43.2292 88.9713 43.4159 89.326C43.6119 89.6713 43.8639 89.9373 44.1719 90.124C44.4892 90.3107 44.8252 90.404 45.1799 90.404C45.5439 90.404 45.8845 90.3153 46.2019 90.138C46.5192 89.9513 46.7712 89.69 46.9579 89.354C47.1445 89.0087 47.2379 88.598 47.2379 88.122ZM52.1202 83.32C51.7748 83.32 51.4855 83.2127 51.2522 82.998C51.0282 82.774 50.9162 82.4987 50.9162 82.172C50.9162 81.8453 51.0282 81.5747 51.2522 81.36C51.4855 81.136 51.7748 81.024 52.1202 81.024C52.4655 81.024 52.7502 81.136 52.9742 81.36C53.2075 81.5747 53.3242 81.8453 53.3242 82.172C53.3242 82.4987 53.2075 82.774 52.9742 82.998C52.7502 83.2127 52.4655 83.32 52.1202 83.32ZM53.0862 84.244V92H51.1262V84.244H53.0862ZM59.3206 84.132C60.2446 84.132 60.9913 84.426 61.5606 85.014C62.13 85.5927 62.4146 86.4047 62.4146 87.45V92H60.4546V87.716C60.4546 87.1 60.3006 86.6287 59.9926 86.302C59.6846 85.966 59.2646 85.798 58.7326 85.798C58.1913 85.798 57.762 85.966 57.4446 86.302C57.1366 86.6287 56.9826 87.1 56.9826 87.716V92H55.0226V84.244H56.9826V85.21C57.244 84.874 57.5753 84.6127 57.9766 84.426C58.3873 84.23 58.8353 84.132 59.3206 84.132ZM67.3165 84.118C67.8952 84.118 68.4038 84.2347 68.8425 84.468C69.2812 84.692 69.6265 84.986 69.8785 85.35V84.244H71.8525V92.056C71.8525 92.7747 71.7078 93.414 71.4185 93.974C71.1292 94.5433 70.6952 94.9913 70.1165 95.318C69.5378 95.654 68.8378 95.822 68.0165 95.822C66.9152 95.822 66.0098 95.5653 65.3005 95.052C64.6005 94.5387 64.2038 93.8387 64.1105 92.952H66.0565C66.1592 93.3067 66.3785 93.5867 66.7145 93.792C67.0598 94.0067 67.4752 94.114 67.9605 94.114C68.5298 94.114 68.9918 93.9413 69.3465 93.596C69.7012 93.26 69.8785 92.7467 69.8785 92.056V90.852C69.6265 91.216 69.2765 91.5193 68.8285 91.762C68.3898 92.0047 67.8858 92.126 67.3165 92.126C66.6632 92.126 66.0658 91.958 65.5245 91.622C64.9832 91.286 64.5538 90.8147 64.2365 90.208C63.9285 89.592 63.7745 88.8873 63.7745 88.094C63.7745 87.31 63.9285 86.6147 64.2365 86.008C64.5538 85.4013 64.9785 84.9347 65.5105 84.608C66.0518 84.2813 66.6538 84.118 67.3165 84.118ZM69.8785 88.122C69.8785 87.646 69.7852 87.24 69.5985 86.904C69.4118 86.5587 69.1598 86.2973 68.8425 86.12C68.5252 85.9333 68.1845 85.84 67.8205 85.84C67.4565 85.84 67.1205 85.9287 66.8125 86.106C66.5045 86.2833 66.2525 86.5447 66.0565 86.89C65.8698 87.226 65.7765 87.6273 65.7765 88.094C65.7765 88.5607 65.8698 88.9713 66.0565 89.326C66.2525 89.6713 66.5045 89.9373 66.8125 90.124C67.1298 90.3107 67.4658 90.404 67.8205 90.404C68.1845 90.404 68.5252 90.3153 68.8425 90.138C69.1598 89.9513 69.4118 89.69 69.5985 89.354C69.7852 89.0087 69.8785 88.598 69.8785 88.122ZM74.7608 83.32C74.4154 83.32 74.1261 83.2127 73.8928 82.998C73.6688 82.774 73.5568 82.4987 73.5568 82.172C73.5568 81.8453 73.6688 81.5747 73.8928 81.36C74.1261 81.136 74.4154 81.024 74.7608 81.024C75.1061 81.024 75.3908 81.136 75.6148 81.36C75.8481 81.5747 75.9648 81.8453 75.9648 82.172C75.9648 82.4987 75.8481 82.774 75.6148 82.998C75.3908 83.2127 75.1061 83.32 74.7608 83.32ZM75.7268 84.244V92H73.7668V84.244H75.7268ZM81.9613 84.132C82.8853 84.132 83.6319 84.426 84.2013 85.014C84.7706 85.5927 85.0553 86.4047 85.0553 87.45V92H83.0953V87.716C83.0953 87.1 82.9413 86.6287 82.6333 86.302C82.3253 85.966 81.9053 85.798 81.3733 85.798C80.8319 85.798 80.4026 85.966 80.0853 86.302C79.7773 86.6287 79.6233 87.1 79.6233 87.716V92H77.6633V84.244H79.6233V85.21C79.8846 84.874 80.2159 84.6127 80.6173 84.426C81.0279 84.23 81.4759 84.132 81.9613 84.132Z" fill="#55B663"/>
<path d="M79.44 17.48C77.072 17.48 75.088 16.744 73.488 15.272C71.952 13.736 71.184 11.848 71.184 9.608C71.184 7.368 71.952 5.512 73.488 4.04C75.088 2.504 77.072 1.736 79.44 1.736C81.808 1.736 83.76 2.504 85.296 4.04C86.896 5.512 87.696 7.368 87.696 9.608C87.696 11.848 86.896 13.736 85.296 15.272C83.76 16.744 81.808 17.48 79.44 17.48ZM86.064 23.816V77H72.624V23.816H86.064Z" fill="#55B663"/>
</svg>
