<svg width="12" height="11" viewBox="0 0 12 11" fill="none" xmlns="http://www.w3.org/2000/svg">
<path d="M5.33418 1.0489C5.54418 0.404201 6.45628 0.404201 6.66558 1.0489L7.41458 3.3533C7.46034 3.49364 7.5493 3.61593 7.66873 3.70267C7.78817 3.78942 7.93197 3.83619 8.07958 3.8363H10.503C11.1813 3.8363 11.4627 4.7043 10.9146 5.1033L8.95458 6.5271C8.83491 6.61392 8.74579 6.73641 8.70002 6.877C8.65424 7.01759 8.65416 7.16906 8.69978 7.3097L9.44878 9.6141C9.65878 10.2588 8.92028 10.7957 8.37078 10.3967L6.41078 8.9729C6.29123 8.8861 6.14728 8.83936 5.99953 8.83936C5.85179 8.83936 5.70784 8.8861 5.58828 8.9729L3.62828 10.3967C3.07948 10.7957 2.34168 10.2588 2.55098 9.6141L3.29998 7.3097C3.34561 7.16906 3.34552 7.01759 3.29975 6.877C3.25398 6.73641 3.16486 6.61392 3.04518 6.5271L1.08588 5.104C0.537784 4.705 0.819884 3.837 1.49748 3.837H3.92018C4.06792 3.83704 4.21188 3.79034 4.33145 3.70358C4.45103 3.61682 4.54009 3.49446 4.58588 3.354L5.33488 1.0496L5.33418 1.0489Z" fill="#F9A620"/>
</svg>
